<mxfile modified="2021-10-04T19:31:55.896Z" host="app.diagrams.net" agent="5.0 (Macintosh; Intel Mac OS X 10_15_7) AppleWebKit/537.36 (KHTML, like Gecko) Chrome/92.0.4515.107 Safari/537.36" etag="fKM4XlN-Ku6NN_faG9DJ" version="15.4.1" type="github">
  <diagram id="Ht1M8jgEwFfnCIfOTk4-" name="Page-1">
    <mxGraphModel dx="2633" dy="1595" grid="1" gridSize="10" guides="1" tooltips="1" connect="1" arrows="1" fold="1" page="1" pageScale="1" pageWidth="1169" pageHeight="827" math="0" shadow="0">
      <root>
        <mxCell id="0" />
        <mxCell id="1" parent="0" />
        <mxCell id="UEzPUAAOIrF-is8g5C7q-167" style="edgeStyle=orthogonalEdgeStyle;rounded=0;orthogonalLoop=1;jettySize=auto;html=1;startArrow=none;startFill=0;endArrow=open;endFill=0;strokeColor=#808080;strokeWidth=2;" parent="1" target="UEzPUAAOIrF-is8g5C7q-149" edge="1">
          <mxGeometry relative="1" as="geometry">
            <mxPoint x="650" y="-500" as="targetPoint" />
            <Array as="points">
              <mxPoint x="640" y="-641" />
              <mxPoint x="640" y="-641" />
            </Array>
            <mxPoint x="620" y="-641" as="sourcePoint" />
          </mxGeometry>
        </mxCell>
        <mxCell id="UEzPUAAOIrF-is8g5C7q-172" style="edgeStyle=orthogonalEdgeStyle;rounded=0;orthogonalLoop=1;jettySize=auto;html=1;startArrow=none;startFill=0;endArrow=open;endFill=0;strokeColor=#808080;strokeWidth=2;" parent="1" source="UEzPUAAOIrF-is8g5C7q-156" target="_rsxwC1zKxjdUnqnIfzU-23" edge="1">
          <mxGeometry relative="1" as="geometry">
            <Array as="points">
              <mxPoint x="140" y="-695" />
              <mxPoint x="140" y="-638" />
            </Array>
          </mxGeometry>
        </mxCell>
        <mxCell id="UEzPUAAOIrF-is8g5C7q-173" style="edgeStyle=orthogonalEdgeStyle;rounded=0;orthogonalLoop=1;jettySize=auto;html=1;startArrow=none;startFill=0;endArrow=open;endFill=0;strokeColor=#808080;strokeWidth=2;" parent="1" source="_rsxwC1zKxjdUnqnIfzU-23" target="_rsxwC1zKxjdUnqnIfzU-23" edge="1">
          <mxGeometry relative="1" as="geometry">
            <Array as="points">
              <mxPoint x="189" y="-634.25" />
              <mxPoint x="189" y="-634.25" />
            </Array>
          </mxGeometry>
        </mxCell>
        <mxCell id="UEzPUAAOIrF-is8g5C7q-148" value="Lambda" style="outlineConnect=0;fontColor=#232F3E;gradientColor=#F78E04;gradientDirection=north;fillColor=#D05C17;strokeColor=#ffffff;dashed=0;verticalLabelPosition=bottom;verticalAlign=top;align=center;html=1;fontSize=12;fontStyle=0;aspect=fixed;shape=mxgraph.aws4.resourceIcon;resIcon=mxgraph.aws4.lambda;labelBackgroundColor=#ffffff;spacingTop=8;" parent="1" vertex="1">
          <mxGeometry x="545" y="-677" width="78" height="78" as="geometry" />
        </mxCell>
        <mxCell id="_rsxwC1zKxjdUnqnIfzU-16" style="edgeStyle=orthogonalEdgeStyle;rounded=0;orthogonalLoop=1;jettySize=auto;html=1;" edge="1" parent="1" source="UEzPUAAOIrF-is8g5C7q-149" target="_rsxwC1zKxjdUnqnIfzU-15">
          <mxGeometry relative="1" as="geometry" />
        </mxCell>
        <mxCell id="UEzPUAAOIrF-is8g5C7q-149" value="Amazon DynamoDB" style="outlineConnect=0;fontColor=#232F3E;gradientColor=#4D72F3;gradientDirection=north;fillColor=#3334B9;strokeColor=#ffffff;dashed=0;verticalLabelPosition=bottom;verticalAlign=top;align=center;html=1;fontSize=12;fontStyle=0;aspect=fixed;shape=mxgraph.aws4.resourceIcon;resIcon=mxgraph.aws4.dynamodb;labelBackgroundColor=#ffffff;" parent="1" vertex="1">
          <mxGeometry x="690" y="-680" width="78" height="78" as="geometry" />
        </mxCell>
        <mxCell id="_rsxwC1zKxjdUnqnIfzU-25" value="" style="edgeStyle=orthogonalEdgeStyle;rounded=0;orthogonalLoop=1;jettySize=auto;html=1;" edge="1" parent="1" source="UEzPUAAOIrF-is8g5C7q-155" target="_rsxwC1zKxjdUnqnIfzU-23">
          <mxGeometry relative="1" as="geometry" />
        </mxCell>
        <mxCell id="UEzPUAAOIrF-is8g5C7q-155" value="" style="rounded=0;whiteSpace=wrap;html=1;dashed=1;labelBackgroundColor=#ffffff;fillColor=none;gradientColor=none;" parent="1" vertex="1">
          <mxGeometry x="-40" y="-796" width="185" height="310" as="geometry" />
        </mxCell>
        <mxCell id="UEzPUAAOIrF-is8g5C7q-156" value="Form1" style="outlineConnect=0;fontColor=#232F3E;gradientColor=none;fillColor=#BC1356;strokeColor=none;dashed=0;verticalLabelPosition=bottom;verticalAlign=top;align=center;html=1;fontSize=12;fontStyle=0;aspect=fixed;pointerEvents=1;shape=mxgraph.aws4.template;labelBackgroundColor=#ffffff;" parent="1" vertex="1">
          <mxGeometry x="25" y="-734" width="65" height="78" as="geometry" />
        </mxCell>
        <mxCell id="UEzPUAAOIrF-is8g5C7q-157" value="Form#2" style="outlineConnect=0;fontColor=#232F3E;gradientColor=none;fillColor=#BC1356;strokeColor=none;dashed=0;verticalLabelPosition=bottom;verticalAlign=top;align=center;html=1;fontSize=12;fontStyle=0;aspect=fixed;pointerEvents=1;shape=mxgraph.aws4.template;labelBackgroundColor=#ffffff;" parent="1" vertex="1">
          <mxGeometry x="25" y="-626" width="65" height="78" as="geometry" />
        </mxCell>
        <mxCell id="UEzPUAAOIrF-is8g5C7q-158" value="Amazon S3&lt;br&gt;Bucket&lt;br&gt;" style="outlineConnect=0;fontColor=#232F3E;gradientColor=none;fillColor=#277116;strokeColor=none;dashed=0;verticalLabelPosition=bottom;verticalAlign=top;align=center;html=1;fontSize=12;fontStyle=0;aspect=fixed;pointerEvents=1;shape=mxgraph.aws4.bucket_with_objects;labelBackgroundColor=#ffffff;" parent="1" vertex="1">
          <mxGeometry x="280" y="-680" width="75" height="78" as="geometry" />
        </mxCell>
        <mxCell id="_rsxwC1zKxjdUnqnIfzU-1" value="API Gateway" style="sketch=0;points=[[0,0,0],[0.25,0,0],[0.5,0,0],[0.75,0,0],[1,0,0],[0,1,0],[0.25,1,0],[0.5,1,0],[0.75,1,0],[1,1,0],[0,0.25,0],[0,0.5,0],[0,0.75,0],[1,0.25,0],[1,0.5,0],[1,0.75,0]];outlineConnect=0;fontColor=#232F3E;gradientColor=#FF4F8B;gradientDirection=north;fillColor=#BC1356;strokeColor=#ffffff;dashed=0;verticalLabelPosition=bottom;verticalAlign=top;align=center;html=1;fontSize=12;fontStyle=0;aspect=fixed;shape=mxgraph.aws4.resourceIcon;resIcon=mxgraph.aws4.api_gateway;" vertex="1" parent="1">
          <mxGeometry x="410" y="-677" width="78" height="78" as="geometry" />
        </mxCell>
        <mxCell id="_rsxwC1zKxjdUnqnIfzU-2" style="edgeStyle=orthogonalEdgeStyle;rounded=0;orthogonalLoop=1;jettySize=auto;html=1;startArrow=none;startFill=0;endArrow=open;endFill=0;strokeColor=#808080;strokeWidth=2;" edge="1" parent="1" source="UEzPUAAOIrF-is8g5C7q-158" target="_rsxwC1zKxjdUnqnIfzU-1">
          <mxGeometry relative="1" as="geometry">
            <mxPoint x="806" y="-515" as="targetPoint" />
            <Array as="points" />
            <mxPoint x="656.0588235294117" y="-592" as="sourcePoint" />
          </mxGeometry>
        </mxCell>
        <mxCell id="_rsxwC1zKxjdUnqnIfzU-3" style="edgeStyle=orthogonalEdgeStyle;rounded=0;orthogonalLoop=1;jettySize=auto;html=1;startArrow=none;startFill=0;endArrow=open;endFill=0;strokeColor=#808080;strokeWidth=2;" edge="1" parent="1" source="_rsxwC1zKxjdUnqnIfzU-1" target="UEzPUAAOIrF-is8g5C7q-148">
          <mxGeometry relative="1" as="geometry">
            <mxPoint x="459.99999999999955" y="-625" as="targetPoint" />
            <Array as="points" />
            <mxPoint x="530" y="-638" as="sourcePoint" />
          </mxGeometry>
        </mxCell>
        <mxCell id="_rsxwC1zKxjdUnqnIfzU-6" value="Lambda" style="outlineConnect=0;fontColor=#232F3E;gradientColor=#F78E04;gradientDirection=north;fillColor=#D05C17;strokeColor=#ffffff;dashed=0;verticalLabelPosition=bottom;verticalAlign=top;align=center;html=1;fontSize=12;fontStyle=0;aspect=fixed;shape=mxgraph.aws4.resourceIcon;resIcon=mxgraph.aws4.lambda;labelBackgroundColor=#ffffff;spacingTop=8;" vertex="1" parent="1">
          <mxGeometry x="690" y="-827" width="78" height="78" as="geometry" />
        </mxCell>
        <mxCell id="_rsxwC1zKxjdUnqnIfzU-7" value="API Gateway" style="sketch=0;points=[[0,0,0],[0.25,0,0],[0.5,0,0],[0.75,0,0],[1,0,0],[0,1,0],[0.25,1,0],[0.5,1,0],[0.75,1,0],[1,1,0],[0,0.25,0],[0,0.5,0],[0,0.75,0],[1,0.25,0],[1,0.5,0],[1,0.75,0]];outlineConnect=0;fontColor=#232F3E;gradientColor=#FF4F8B;gradientDirection=north;fillColor=#BC1356;strokeColor=#ffffff;dashed=0;verticalLabelPosition=bottom;verticalAlign=top;align=center;html=1;fontSize=12;fontStyle=0;aspect=fixed;shape=mxgraph.aws4.resourceIcon;resIcon=mxgraph.aws4.api_gateway;" vertex="1" parent="1">
          <mxGeometry x="860" y="-827" width="78" height="78" as="geometry" />
        </mxCell>
        <mxCell id="_rsxwC1zKxjdUnqnIfzU-8" style="edgeStyle=orthogonalEdgeStyle;rounded=0;orthogonalLoop=1;jettySize=auto;html=1;startArrow=none;startFill=0;endArrow=open;endFill=0;strokeColor=#808080;strokeWidth=2;" edge="1" parent="1" source="_rsxwC1zKxjdUnqnIfzU-7" target="_rsxwC1zKxjdUnqnIfzU-6">
          <mxGeometry relative="1" as="geometry">
            <mxPoint x="839.9999999999995" y="-434" as="targetPoint" />
            <Array as="points" />
            <mxPoint x="910" y="-447" as="sourcePoint" />
          </mxGeometry>
        </mxCell>
        <mxCell id="_rsxwC1zKxjdUnqnIfzU-9" style="edgeStyle=orthogonalEdgeStyle;rounded=0;orthogonalLoop=1;jettySize=auto;html=1;startArrow=none;startFill=0;endArrow=open;endFill=0;strokeColor=#808080;strokeWidth=2;" edge="1" parent="1" source="_rsxwC1zKxjdUnqnIfzU-6" target="UEzPUAAOIrF-is8g5C7q-149">
          <mxGeometry relative="1" as="geometry">
            <mxPoint x="934.9999999999995" y="-437" as="targetPoint" />
            <Array as="points">
              <mxPoint x="729" y="-640" />
            </Array>
            <mxPoint x="878" y="-437" as="sourcePoint" />
          </mxGeometry>
        </mxCell>
        <mxCell id="_rsxwC1zKxjdUnqnIfzU-13" style="edgeStyle=orthogonalEdgeStyle;rounded=0;orthogonalLoop=1;jettySize=auto;html=1;" edge="1" parent="1" source="_rsxwC1zKxjdUnqnIfzU-10" target="_rsxwC1zKxjdUnqnIfzU-7">
          <mxGeometry relative="1" as="geometry" />
        </mxCell>
        <mxCell id="_rsxwC1zKxjdUnqnIfzU-14" value="VBA Upload" style="edgeStyle=orthogonalEdgeStyle;rounded=0;orthogonalLoop=1;jettySize=auto;html=1;" edge="1" parent="1" source="_rsxwC1zKxjdUnqnIfzU-10" target="_rsxwC1zKxjdUnqnIfzU-7">
          <mxGeometry relative="1" as="geometry" />
        </mxCell>
        <mxCell id="_rsxwC1zKxjdUnqnIfzU-10" value="" style="shape=image;html=1;verticalAlign=top;verticalLabelPosition=bottom;labelBackgroundColor=#ffffff;imageAspect=0;aspect=fixed;image=https://cdn3.iconfinder.com/data/icons/logos-brands-3/24/logo_brand_brands_logos_excel-128.png" vertex="1" parent="1">
          <mxGeometry x="1050" y="-817" width="58" height="58" as="geometry" />
        </mxCell>
        <mxCell id="_rsxwC1zKxjdUnqnIfzU-18" style="edgeStyle=orthogonalEdgeStyle;rounded=0;orthogonalLoop=1;jettySize=auto;html=1;" edge="1" parent="1" source="_rsxwC1zKxjdUnqnIfzU-15" target="_rsxwC1zKxjdUnqnIfzU-17">
          <mxGeometry relative="1" as="geometry" />
        </mxCell>
        <mxCell id="_rsxwC1zKxjdUnqnIfzU-15" value="Data Pipeline" style="outlineConnect=0;dashed=0;verticalLabelPosition=bottom;verticalAlign=top;align=center;html=1;shape=mxgraph.aws3.data_pipeline;fillColor=#F58534;gradientColor=none;" vertex="1" parent="1">
          <mxGeometry x="695.25" y="-520" width="67.5" height="81" as="geometry" />
        </mxCell>
        <mxCell id="_rsxwC1zKxjdUnqnIfzU-20" value="" style="edgeStyle=orthogonalEdgeStyle;rounded=0;orthogonalLoop=1;jettySize=auto;html=1;" edge="1" parent="1" source="_rsxwC1zKxjdUnqnIfzU-17" target="_rsxwC1zKxjdUnqnIfzU-19">
          <mxGeometry relative="1" as="geometry" />
        </mxCell>
        <mxCell id="_rsxwC1zKxjdUnqnIfzU-21" value="Download Report" style="edgeLabel;html=1;align=center;verticalAlign=middle;resizable=0;points=[];" vertex="1" connectable="0" parent="_rsxwC1zKxjdUnqnIfzU-20">
          <mxGeometry x="-0.0035" y="-1" relative="1" as="geometry">
            <mxPoint as="offset" />
          </mxGeometry>
        </mxCell>
        <mxCell id="_rsxwC1zKxjdUnqnIfzU-17" value="Amazon S3&lt;br&gt;Bucket&lt;br&gt;" style="outlineConnect=0;fontColor=#232F3E;gradientColor=none;fillColor=#277116;strokeColor=none;dashed=0;verticalLabelPosition=bottom;verticalAlign=top;align=center;html=1;fontSize=12;fontStyle=0;aspect=fixed;pointerEvents=1;shape=mxgraph.aws4.bucket_with_objects;labelBackgroundColor=#ffffff;" vertex="1" parent="1">
          <mxGeometry x="850" y="-518.5" width="75" height="78" as="geometry" />
        </mxCell>
        <mxCell id="_rsxwC1zKxjdUnqnIfzU-19" value="" style="shape=image;html=1;verticalAlign=top;verticalLabelPosition=bottom;labelBackgroundColor=#ffffff;imageAspect=0;aspect=fixed;image=https://cdn3.iconfinder.com/data/icons/logos-brands-3/24/logo_brand_brands_logos_excel-128.png" vertex="1" parent="1">
          <mxGeometry x="1050" y="-508.5" width="58" height="58" as="geometry" />
        </mxCell>
        <mxCell id="_rsxwC1zKxjdUnqnIfzU-26" value="" style="edgeStyle=orthogonalEdgeStyle;rounded=0;orthogonalLoop=1;jettySize=auto;html=1;" edge="1" parent="1" source="_rsxwC1zKxjdUnqnIfzU-23" target="UEzPUAAOIrF-is8g5C7q-158">
          <mxGeometry relative="1" as="geometry" />
        </mxCell>
        <mxCell id="_rsxwC1zKxjdUnqnIfzU-23" value="Route 53&lt;br&gt;(Custom domain)" style="outlineConnect=0;dashed=0;verticalLabelPosition=bottom;verticalAlign=top;align=center;html=1;shape=mxgraph.aws3.route_53;fillColor=#F58536;gradientColor=none;" vertex="1" parent="1">
          <mxGeometry x="170" y="-683.75" width="70.5" height="85.5" as="geometry" />
        </mxCell>
        <mxCell id="_rsxwC1zKxjdUnqnIfzU-24" value="" style="edgeStyle=orthogonalEdgeStyle;rounded=0;orthogonalLoop=1;jettySize=auto;html=1;startArrow=none;startFill=0;endArrow=none;endFill=0;strokeColor=#808080;strokeWidth=2;" edge="1" parent="1" source="UEzPUAAOIrF-is8g5C7q-157" target="_rsxwC1zKxjdUnqnIfzU-23">
          <mxGeometry relative="1" as="geometry">
            <Array as="points" />
            <mxPoint x="89.99999999999955" y="-587" as="sourcePoint" />
            <mxPoint x="280.00827256153116" y="-638.0588235294117" as="targetPoint" />
          </mxGeometry>
        </mxCell>
      </root>
    </mxGraphModel>
  </diagram>
</mxfile>
